{
    "asset" : {
        "generator" : "Khronos glTF Blender I/O v1.6.16",
        "version" : "2.0"
    },
    "scene" : 0,
    "scenes" : [
        {
            "name" : "\u573a\u666f",
            "nodes" : [
                0
            ]
        }
    ],
    "nodes" : [
        {
            "mesh" : 0,
            "name" : "Bullet",
            "scale" : [
                0.46825698018074036,
                0.46825698018074036,
                0.46825698018074036
            ]
        }
    ],
    "meshes" : [
        {
            "name" : "Bullet",
            "primitives" : [
                {
                    "attributes" : {
                        "POSITION" : 0,
                        "NORMAL" : 1
                    },
                    "indices" : 2
                }
            ]
        }
    ],
    "accessors" : [
        {
            "bufferView" : 0,
            "componentType" : 5126,
            "count" : 272,
            "max" : [
                1.1333110332489014,
                2.11510968208313,
                1.1333110332489014
            ],
            "min" : [
                -1.1333110332489014,
                -2.11510968208313,
                -1.1333110332489014
            ],
            "type" : "VEC3"
        },
        {
            "bufferView" : 1,
            "componentType" : 5126,
            "count" : 272,
            "type" : "VEC3"
        },
        {
            "bufferView" : 2,
            "componentType" : 5123,
            "count" : 1620,
            "type" : "SCALAR"
        }
    ],
    "bufferViews" : [
        {
            "buffer" : 0,
            "byteLength" : 3264,
            "byteOffset" : 0
        },
        {
            "buffer" : 0,
            "byteLength" : 3264,
            "byteOffset" : 3264
        },
        {
            "buffer" : 0,
            "byteLength" : 3240,
            "byteOffset" : 6528
        }
    ],
    "buffers" : [
        {
            "byteLength" : 9768,
            "uri" : "data:application/octet-stream;base64,"
        }
    ]
}
